<?xml version="1.0" encoding="UTF-8" standalone="no"?>
<svg
   xmlns:dc="http://purl.org/dc/elements/1.1/"
   xmlns:cc="http://creativecommons.org/ns#"
   xmlns:rdf="http://www.w3.org/1999/02/22-rdf-syntax-ns#"
   xmlns:svg="http://www.w3.org/2000/svg"
   xmlns="http://www.w3.org/2000/svg"
   xmlns:sodipodi="http://sodipodi.sourceforge.net/DTD/sodipodi-0.dtd"
   xmlns:inkscape="http://www.inkscape.org/namespaces/inkscape"
   version="1.0"
   width="60.438446pt"
   height="46.83744pt"
   viewBox="0 0 60.438447 46.837441"
   preserveAspectRatio="xMidYMid meet"
   id="svg28"
   sodipodi:docname="leafmap-leave-left-rotate.svg"
   inkscape:version="0.92.5 (2060ec1f9f, 2020-04-08)">
  <metadata
     id="metadata34">
    <rdf:RDF>
      <cc:Work
         rdf:about="">
        <dc:format>image/svg+xml</dc:format>
        <dc:type
           rdf:resource="http://purl.org/dc/dcmitype/StillImage" />
        <dc:title></dc:title>
      </cc:Work>
    </rdf:RDF>
  </metadata>
  <defs
     id="defs32" />
  <sodipodi:namedview
     pagecolor="#ffffff"
     bordercolor="#666666"
     borderopacity="1"
     objecttolerance="10"
     gridtolerance="10"
     guidetolerance="10"
     inkscape:pageopacity="0"
     inkscape:pageshadow="2"
     inkscape:window-width="1920"
     inkscape:window-height="1015"
     id="namedview30"
     showgrid="false"
     fit-margin-top="0"
     fit-margin-left="0"
     fit-margin-right="0"
     fit-margin-bottom="0"
     inkscape:zoom="0.38541667"
     inkscape:cx="-316.13959"
     inkscape:cy="118.04394"
     inkscape:window-x="0"
     inkscape:window-y="0"
     inkscape:window-maximized="1"
     inkscape:current-layer="g26" />
  <g
     transform="matrix(0.1,0,0,-0.1,-294.51009,130.30448)"
     id="g26"
     style="fill:#000000;stroke:none">
    <path
       d="m 2945.2366,1243.3946 c 0.8526,-66.7028 71.1135,-210.5062 130.8682,-268.93025 89.2157,-86.72694 210.9401,-138.76696 331.2773,-139.74745 67.5357,-0.96577 122.6138,13.26089 115.1186,29.62615 -2.082,4.54591 -39.5728,33.57068 -82.366,64.56657 -42.7931,30.99589 -111.376,79.87728 -150.6089,110.30398 l -73.316,54.4128 61.4695,-21.3423 c 69.4231,-24.2989 137.1387,-59.2789 217.5754,-114.83006 l 54.2307,-36.75649 -16.4615,55.15452 c -65.8875,206.30033 -217.1764,322.89223 -426.9042,326.92783 -50.0739,1.2639 -107.9141,-2.1289 -126.4378,-7.313 -32.9941,-9.6118 -35.3053,-11.7701 -34.4453,-52.0723 z"
       id="path24"
       inkscape:connector-curvature="0"
       style="fill:#008000" />
  </g>
</svg>
