<?xml version="1.0" standalone="no"?>
<!DOCTYPE svg PUBLIC "-//W3C//DTD SVG 20010904//EN"
 "http://www.w3.org/TR/2001/REC-SVG-20010904/DTD/svg10.dtd">
<svg version="1.0" xmlns="http://www.w3.org/2000/svg"
 width="720.000000pt" height="344.000000pt" viewBox="0 0 720.000000 344.000000"
 preserveAspectRatio="xMidYMid meet">

<g transform="translate(0.000000,344.000000) scale(0.100000,-0.100000)"
fill="#000000" stroke="none">
<path d="M2960 3192 c-307 -120 -310 -123 -231 -364 28 -85 51 -161 51 -169 0
-18 -190 -198 -210 -199 -9 0 -83 23 -165 50 -82 28 -159 50 -172 50 -12 0
-38 -7 -57 -16 -31 -16 -41 -32 -116 -205 -77 -179 -80 -191 -70 -228 14 -52
49 -80 182 -147 l108 -54 0 79 c0 98 10 111 83 111 82 0 81 0 87 -162 l5 -143
22 45 c12 25 31 51 42 58 18 11 21 22 21 93 0 70 4 90 34 153 85 186 242 356
418 455 89 51 197 90 302 112 142 29 332 23 461 -15 184 -55 325 -138 452
-269 125 -128 222 -293 256 -437 l11 -48 81 -4 c63 -2 87 -8 112 -25 17 -13
36 -23 42 -23 25 0 243 111 265 135 51 55 43 103 -59 344 -75 178 -104 188
-330 112 -82 -28 -154 -51 -160 -51 -5 0 -54 47 -107 104 l-97 103 54 164 c30
90 55 172 55 182 0 10 -9 35 -19 55 -17 33 -32 43 -108 77 -182 79 -276 115
-302 115 -57 0 -91 -37 -166 -181 -38 -75 -76 -143 -84 -153 -11 -13 -36 -16
-153 -16 l-139 0 -77 157 c-110 225 -124 232 -322 155z"/>
<path d="M3298 2045 c-36 -20 -58 -64 -58 -115 0 -36 -2 -40 -25 -40 -22 0
-25 -4 -25 -35 0 -31 3 -35 25 -35 l25 0 0 -150 0 -150 40 0 40 0 0 150 0 150
35 0 c33 0 35 2 35 35 0 33 -2 35 -35 35 -31 0 -35 3 -35 26 0 42 17 64 51 64
29 0 30 2 27 38 -3 35 -5 37 -38 39 -19 2 -47 -4 -62 -12z"/>
<path d="M2322 1806 c3 -223 5 -246 22 -265 14 -15 31 -21 63 -21 43 0 43 0
43 35 0 28 -4 35 -20 35 -19 0 -20 7 -20 230 l0 230 -45 0 -46 0 3 -244z"/>
<path d="M2585 1881 c-62 -38 -95 -100 -95 -179 0 -57 32 -127 72 -156 30 -21
116 -32 173 -22 33 7 35 9 35 46 l0 39 -31 -11 c-69 -24 -159 17 -159 73 0 18
8 19 110 19 l110 0 0 53 c0 62 -24 108 -72 137 -41 25 -104 26 -143 1z m115
-71 c11 -11 20 -29 20 -40 0 -18 -7 -20 -70 -20 -79 0 -89 12 -45 55 29 30 68
32 95 5z"/>
<path d="M2913 1889 c-29 -8 -33 -14 -33 -44 l0 -34 63 6 c70 6 107 -6 107
-36 0 -15 -11 -20 -56 -25 -95 -11 -144 -49 -144 -113 0 -49 16 -81 52 -104
28 -17 45 -20 108 -16 41 2 87 9 103 15 l27 12 0 107 c0 129 -10 170 -50 208
-25 24 -40 29 -87 31 -32 2 -73 -1 -90 -7z m137 -249 l0 -50 -42 0 c-69 0
-103 51 -56 84 12 9 39 16 60 16 l38 0 0 -50z"/>
<path d="M3553 1880 c-27 -16 -33 -17 -33 -5 0 11 -11 15 -40 15 l-40 0 2
-182 3 -183 40 0 40 0 3 135 c3 149 7 160 68 160 52 0 59 -18 62 -167 l4 -133
39 0 39 0 0 140 c0 154 3 160 69 160 52 0 61 -27 61 -172 l0 -128 41 0 40 0
-3 160 c-3 157 -3 160 -29 186 -38 37 -104 44 -159 15 l-40 -21 -33 20 c-41
25 -93 25 -134 0z"/>
<path d="M4093 1889 c-30 -9 -33 -13 -33 -50 0 -36 2 -39 19 -29 33 17 116 12
134 -8 25 -28 21 -42 -14 -42 -56 0 -117 -21 -146 -52 -23 -24 -28 -38 -27
-74 1 -37 7 -52 33 -77 31 -31 34 -32 119 -32 133 0 132 -1 132 153 0 110 -3
131 -20 160 -34 55 -113 75 -197 51z m137 -249 l0 -50 -48 0 c-52 0 -72 12
-72 44 0 34 29 56 77 56 l43 0 0 -50z"/>
<path d="M4448 1884 l-48 -15 0 -244 c0 -134 3 -246 8 -248 4 -2 24 -2 45 0
l37 5 0 69 0 69 38 0 c81 1 174 73 188 145 11 58 -1 129 -26 165 -45 64 -141
85 -242 54z m156 -83 c43 -47 39 -136 -8 -180 -13 -12 -42 -25 -65 -28 l-41
-6 0 117 0 116 48 0 c35 0 54 -5 66 -19z"/>
<path d="M4530 1710 c0 -76 14 -91 44 -48 30 43 14 118 -24 118 -18 0 -20 -7
-20 -70z"/>
<path d="M2140 1497 c-119 -59 -126 -64 -149 -110 l-23 -48 22 -62 c40 -110
113 -281 132 -309 10 -14 38 -34 62 -43 l43 -17 155 51 c85 28 161 51 169 51
21 0 212 -197 207 -212 -3 -7 -29 -84 -58 -170 l-53 -157 17 -46 c20 -52 42
-65 256 -155 148 -62 188 -66 233 -22 16 17 64 95 106 174 l76 143 140 -4 c77
-2 144 -5 148 -8 4 -2 41 -73 81 -157 66 -139 76 -154 111 -170 51 -25 98 -18
225 33 214 86 255 116 254 189 0 20 -22 106 -49 190 l-49 153 102 102 102 102
138 -47 c210 -72 214 -72 263 -48 36 19 46 32 83 113 65 139 116 271 116 299
0 54 -40 90 -173 159 l-128 66 -57 -28 c-31 -16 -69 -31 -84 -34 -26 -5 -28
-9 -28 -59 0 -62 -9 -72 -69 -82 -40 -6 -44 -10 -73 -68 -49 -98 -106 -176
-187 -257 -130 -130 -284 -217 -469 -266 -83 -22 -117 -26 -242 -26 -170 0
-281 24 -423 91 -170 79 -312 201 -417 357 -78 116 -109 195 -110 276 0 60 -3
68 -25 83 -24 16 -25 15 -25 -3 0 -70 -158 -64 -195 8 -8 17 -19 31 -23 30 -4
0 -63 -28 -132 -62z"/>
<path d="M3842 1385 c-194 -75 -303 -213 -325 -412 -10 -96 -5 -173 13 -173 5
0 18 26 30 58 36 95 186 302 219 302 6 0 -5 -26 -26 -57 -75 -117 -163 -296
-163 -333 0 -36 160 37 241 109 95 85 140 198 138 351 -1 110 -17 174 -44 177
-11 1 -48 -9 -83 -22z"/>
<path d="M3043 1354 c-27 -61 -23 -221 7 -299 45 -116 134 -214 243 -265 61
-29 117 -39 117 -21 0 5 -22 47 -48 93 -26 46 -68 119 -91 163 l-44 80 47 -45
c53 -51 100 -111 150 -195 l34 -56 8 57 c26 215 -63 384 -252 475 -45 22 -99
43 -118 46 -34 5 -37 4 -53 -33z"/>
</g>
</svg>
