<?xml version="1.0" encoding="UTF-8" standalone="no"?>
<svg
   xmlns:dc="http://purl.org/dc/elements/1.1/"
   xmlns:cc="http://creativecommons.org/ns#"
   xmlns:rdf="http://www.w3.org/1999/02/22-rdf-syntax-ns#"
   xmlns:svg="http://www.w3.org/2000/svg"
   xmlns="http://www.w3.org/2000/svg"
   xmlns:sodipodi="http://sodipodi.sourceforge.net/DTD/sodipodi-0.dtd"
   xmlns:inkscape="http://www.inkscape.org/namespaces/inkscape"
   version="1.0"
   width="57.161068pt"
   height="53.900352pt"
   viewBox="0 0 57.161069 53.900353"
   preserveAspectRatio="xMidYMid meet"
   id="svg28"
   sodipodi:docname="leafmap-leave-right-rotate.svg"
   inkscape:version="0.92.5 (2060ec1f9f, 2020-04-08)">
  <metadata
     id="metadata34">
    <rdf:RDF>
      <cc:Work
         rdf:about="">
        <dc:format>image/svg+xml</dc:format>
        <dc:type
           rdf:resource="http://purl.org/dc/dcmitype/StillImage" />
        <dc:title></dc:title>
      </cc:Work>
    </rdf:RDF>
  </metadata>
  <defs
     id="defs32" />
  <sodipodi:namedview
     pagecolor="#ffffff"
     bordercolor="#666666"
     borderopacity="1"
     objecttolerance="10"
     gridtolerance="10"
     guidetolerance="10"
     inkscape:pageopacity="0"
     inkscape:pageshadow="2"
     inkscape:window-width="1920"
     inkscape:window-height="1015"
     id="namedview30"
     showgrid="false"
     fit-margin-top="0"
     fit-margin-left="0"
     fit-margin-right="0"
     fit-margin-bottom="0"
     inkscape:zoom="0.38541667"
     inkscape:cx="-787.29729"
     inkscape:cy="121.61043"
     inkscape:window-x="0"
     inkscape:window-y="0"
     inkscape:window-maximized="1"
     inkscape:current-layer="g26" />
  <g
     transform="matrix(0.1,0,0,-0.1,-345.28377,134.69254)"
     id="g26"
     style="fill:#000000;stroke:none">
    <path
       d="m 3921.3262,1345.1911 c -207.1741,-18.4357 -350.0813,-120.9176 -426.2465,-306.0766 -36.1539,-89.49246 -52.6391,-164.87308 -35.3408,-169.85003 4.805,-1.38248 24.4872,20.00944 44.8672,47.44395 60.8638,81.34252 262.2509,238.79808 293.9644,229.67368 5.7661,-1.659 -11.994,-23.6039 -40.7467,-47.589 -104.4263,-91.7014 -238.4886,-239.39134 -248.7189,-274.94889 -9.9539,-34.59653 163.9927,-8.68197 261.7427,38.11484 114.7986,55.41905 189.2885,151.57135 229.6705,299.15965 29.4536,105.9881 31.7732,171.917 6.6553,182.2654 -10.2947,4.0025 -48.6172,4.6228 -85.8472,1.807 z"
       id="path22"
       inkscape:connector-curvature="0"
       style="fill:#008000" />
  </g>
</svg>
