<?xml version="1.0" encoding="UTF-8" standalone="no"?>
<svg
   xmlns:dc="http://purl.org/dc/elements/1.1/"
   xmlns:cc="http://creativecommons.org/ns#"
   xmlns:rdf="http://www.w3.org/1999/02/22-rdf-syntax-ns#"
   xmlns:svg="http://www.w3.org/2000/svg"
   xmlns="http://www.w3.org/2000/svg"
   xmlns:sodipodi="http://sodipodi.sourceforge.net/DTD/sodipodi-0.dtd"
   xmlns:inkscape="http://www.inkscape.org/namespaces/inkscape"
   version="1.0"
   width="57.161068pt"
   height="53.900352pt"
   viewBox="0 0 57.161069 53.900353"
   preserveAspectRatio="xMidYMid meet"
   id="svg28"
   sodipodi:docname="leafmap-leave-right-rotate1.svg"
   inkscape:version="0.92.5 (2060ec1f9f, 2020-04-08)">
  <metadata
     id="metadata34">
    <rdf:RDF>
      <cc:Work
         rdf:about="">
        <dc:format>image/svg+xml</dc:format>
        <dc:type
           rdf:resource="http://purl.org/dc/dcmitype/StillImage" />
        <dc:title></dc:title>
      </cc:Work>
    </rdf:RDF>
  </metadata>
  <defs
     id="defs32" />
  <sodipodi:namedview
     pagecolor="#ffffff"
     bordercolor="#666666"
     borderopacity="1"
     objecttolerance="10"
     gridtolerance="10"
     guidetolerance="10"
     inkscape:pageopacity="0"
     inkscape:pageshadow="2"
     inkscape:window-width="1920"
     inkscape:window-height="1015"
     id="namedview30"
     showgrid="false"
     fit-margin-top="0"
     fit-margin-left="0"
     fit-margin-right="0"
     fit-margin-bottom="0"
     inkscape:zoom="0.38541667"
     inkscape:cx="-787.29729"
     inkscape:cy="121.61043"
     inkscape:window-x="0"
     inkscape:window-y="0"
     inkscape:window-maximized="1"
     inkscape:current-layer="g26" />
  <g
     transform="matrix(0.1,0,0,-0.1,-345.28377,134.69254)"
     id="g26"
     style="fill:#000000;stroke:none">
    <path
       d="m 3808.7354,1258.8682 c -150.7511,-13.4148 -254.7382,-87.9862 -310.1601,-222.718 -26.3076,-65.11957 -38.3031,-119.9706 -25.7159,-123.5921 3.4964,-1.00597 17.8182,14.55995 32.6478,34.52279 44.2878,59.18921 190.828,173.76251 213.9045,167.12301 4.1957,-1.2071 -8.7275,-17.1754 -29.6495,-34.6283 -75.9863,-66.7269 -173.5373,-174.19415 -180.9814,-200.06775 -7.243,-25.17432 119.33,-6.31748 190.4582,27.73443 83.5337,40.32591 137.7366,110.29152 167.1207,217.68482 21.4321,77.1227 23.1199,125.0962 4.8428,132.6262 -7.491,2.9125 -35.3765,3.3638 -62.4671,1.3149 z"
       id="path22"
       inkscape:connector-curvature="0"
       style="fill:#008000;stroke-width:0.72765434" />
  </g>
</svg>
