<?xml version="1.0" encoding="UTF-8" standalone="no"?>
<svg
   xmlns:dc="http://purl.org/dc/elements/1.1/"
   xmlns:cc="http://creativecommons.org/ns#"
   xmlns:rdf="http://www.w3.org/1999/02/22-rdf-syntax-ns#"
   xmlns:svg="http://www.w3.org/2000/svg"
   xmlns="http://www.w3.org/2000/svg"
   xmlns:sodipodi="http://sodipodi.sourceforge.net/DTD/sodipodi-0.dtd"
   xmlns:inkscape="http://www.inkscape.org/namespaces/inkscape"
   version="1.0"
   width="60.438446pt"
   height="46.83744pt"
   viewBox="0 0 60.438447 46.837441"
   preserveAspectRatio="xMidYMid meet"
   id="svg28"
   sodipodi:docname="leafmap-leave-left-rotate1.svg"
   inkscape:version="0.92.5 (2060ec1f9f, 2020-04-08)">
  <metadata
     id="metadata34">
    <rdf:RDF>
      <cc:Work
         rdf:about="">
        <dc:format>image/svg+xml</dc:format>
        <dc:type
           rdf:resource="http://purl.org/dc/dcmitype/StillImage" />
        <dc:title></dc:title>
      </cc:Work>
    </rdf:RDF>
  </metadata>
  <defs
     id="defs32" />
  <sodipodi:namedview
     pagecolor="#ffffff"
     bordercolor="#666666"
     borderopacity="1"
     objecttolerance="10"
     gridtolerance="10"
     guidetolerance="10"
     inkscape:pageopacity="0"
     inkscape:pageshadow="2"
     inkscape:window-width="1920"
     inkscape:window-height="1015"
     id="namedview30"
     showgrid="false"
     fit-margin-top="0"
     fit-margin-left="0"
     fit-margin-right="0"
     fit-margin-bottom="0"
     inkscape:zoom="0.38541667"
     inkscape:cx="-316.13959"
     inkscape:cy="118.04394"
     inkscape:window-x="0"
     inkscape:window-y="0"
     inkscape:window-maximized="1"
     inkscape:current-layer="g26" />
  <g
     transform="matrix(0.1,0,0,-0.1,-294.51009,130.30448)"
     id="g26"
     style="fill:#000000;stroke:none">
    <path
       d="m 3148.5833,1087.9549 c 11.42,-42.2029 75.3417,-120.79188 119.238,-147.06687 65.4563,-38.9106 143.9012,-49.90512 213.1825,-28.72729 38.9502,11.62158 68.2553,30.63377 61.2684,39.66814 -1.9408,2.50956 -28.2314,14.14888 -57.8905,26.0793 -29.6592,11.93047 -77.0626,30.54632 -104.5835,42.76032 l -51.0285,21.271 38.8048,-2.4168 c 43.8578,-2.8534 88.4851,-12.7989 143.7901,-33.5027 l 37.1728,-13.5165 -18.4933,32.0418 c -71.6507,119.0679 -177.6552,165.698 -298.7822,130.266 -28.9691,-8.2688 -61.6361,-20.9017 -71.4264,-27.5495 -17.3764,-12.0808 -18.3504,-13.8701 -11.2522,-39.3069 z"
       id="path24"
       inkscape:connector-curvature="0"
       style="fill:#008000;stroke-width:0.62803978" />
  </g>
</svg>
