<?xml version="1.0" encoding="UTF-8" standalone="no"?>
<svg
   xmlns:dc="http://purl.org/dc/elements/1.1/"
   xmlns:cc="http://creativecommons.org/ns#"
   xmlns:rdf="http://www.w3.org/1999/02/22-rdf-syntax-ns#"
   xmlns:svg="http://www.w3.org/2000/svg"
   xmlns="http://www.w3.org/2000/svg"
   xmlns:sodipodi="http://sodipodi.sourceforge.net/DTD/sodipodi-0.dtd"
   xmlns:inkscape="http://www.inkscape.org/namespaces/inkscape"
   version="1.0"
   width="94.413727pt"
   height="64.70723pt"
   viewBox="0 0 94.413727 64.70723"
   preserveAspectRatio="xMidYMid meet"
   id="svg28"
   sodipodi:docname="leafmap-leaves.svg"
   inkscape:version="0.92.5 (2060ec1f9f, 2020-04-08)">
  <metadata
     id="metadata34">
    <rdf:RDF>
      <cc:Work
         rdf:about="">
        <dc:format>image/svg+xml</dc:format>
        <dc:type
           rdf:resource="http://purl.org/dc/dcmitype/StillImage" />
        <dc:title />
      </cc:Work>
    </rdf:RDF>
  </metadata>
  <defs
     id="defs32" />
  <sodipodi:namedview
     pagecolor="#ffffff"
     bordercolor="#666666"
     borderopacity="1"
     objecttolerance="10"
     gridtolerance="10"
     guidetolerance="10"
     inkscape:pageopacity="0"
     inkscape:pageshadow="2"
     inkscape:window-width="1920"
     inkscape:window-height="1015"
     id="namedview30"
     showgrid="false"
     fit-margin-top="0"
     fit-margin-left="0"
     fit-margin-right="0"
     fit-margin-bottom="0"
     inkscape:zoom="2.1802459"
     inkscape:cx="-47.966891"
     inkscape:cy="24.216657"
     inkscape:window-x="0"
     inkscape:window-y="0"
     inkscape:window-maximized="1"
     inkscape:current-layer="g26" />
  <g
     transform="matrix(0.1,0,0,-0.1,-302.49265,140.7069)"
     id="g26"
     style="fill:#000000;stroke:none">
    <path
       d="m 3842,1385 c -194,-75 -303,-213 -325,-412 -10,-96 -5,-173 13,-173 5,0 18,26 30,58 36,95 186,302 219,302 6,0 -5,-26 -26,-57 -75,-117 -163,-296 -163,-333 0,-36 160,37 241,109 95,85 140,198 138,351 -1,110 -17,174 -44,177 -11,1 -48,-9 -83,-22 z"
       id="path22"
       inkscape:connector-curvature="0"
       style="fill:#008000" />
    <path
       d="m 3043,1354 c -27,-61 -23,-221 7,-299 45,-116 134,-214 243,-265 61,-29 117,-39 117,-21 0,5 -22,47 -48,93 -26,46 -68,119 -91,163 l -44,80 47,-45 c 53,-51 100,-111 150,-195 l 34,-56 8,57 c 26,215 -63,384 -252,475 -45,22 -99,43 -118,46 -34,5 -37,4 -53,-33 z"
       id="path24"
       inkscape:connector-curvature="0"
       style="fill:#008000" />
  </g>
</svg>
