<?xml version="1.0" encoding="UTF-8" standalone="no"?>
<!-- Generator: Adobe Illustrator 18.0.0, SVG Export Plug-In . SVG Version: 6.00 Build 0)  -->

<svg
   xmlns:dc="http://purl.org/dc/elements/1.1/"
   xmlns:cc="http://creativecommons.org/ns#"
   xmlns:rdf="http://www.w3.org/1999/02/22-rdf-syntax-ns#"
   xmlns:svg="http://www.w3.org/2000/svg"
   xmlns="http://www.w3.org/2000/svg"
   xmlns:sodipodi="http://sodipodi.sourceforge.net/DTD/sodipodi-0.dtd"
   xmlns:inkscape="http://www.inkscape.org/namespaces/inkscape"
   version="1.1"
   id="Capa_1"
   x="0px"
   y="0px"
   viewBox="0 0 225.176 225.176"
   style="enable-background:new 0 0 225.176 225.176;"
   xml:space="preserve"
   sodipodi:docname="abc.svg"
   inkscape:version="0.92.5 (2060ec1f9f, 2020-04-08)"><metadata
   id="metadata57"><rdf:RDF><cc:Work
       rdf:about=""><dc:format>image/svg+xml</dc:format><dc:type
         rdf:resource="http://purl.org/dc/dcmitype/StillImage" /></cc:Work></rdf:RDF></metadata><defs
   id="defs55">
	
	
	
	
	

		
		
		
		
	</defs><sodipodi:namedview
   pagecolor="#ffffff"
   bordercolor="#666666"
   borderopacity="1"
   objecttolerance="10"
   gridtolerance="10"
   guidetolerance="10"
   inkscape:pageopacity="0"
   inkscape:pageshadow="2"
   inkscape:window-width="741"
   inkscape:window-height="480"
   id="namedview53"
   showgrid="false"
   inkscape:zoom="1.0480691"
   inkscape:cx="112.588"
   inkscape:cy="112.588"
   inkscape:window-x="603"
   inkscape:window-y="217"
   inkscape:window-maximized="0"
   inkscape:current-layer="Capa_1" />















<g
   id="g92"><path
     inkscape:connector-curvature="0"
     id="path2"
     d="m 221.994,188.63 c -0.03,-33.172 0.644,-66.437 -0.899,-99.577 0.021,-0.03 0.046,-0.06 0.067,-0.09 0.139,-0.034 0.284,-0.053 0.421,-0.09 0.951,-0.254 1.119,-1.121 0.828,-1.827 0.382,-1.35 -1.527,-2.471 -2.667,-1.442 -0.165,0.149 -0.322,0.313 -0.487,0.463 -3.516,-0.086 -7.1,0.165 -10.683,0.432 -0.281,-0.391 -0.713,-0.683 -1.326,-0.721 -16.538,-1.033 -33.195,-1.488 -49.774,-1.536 3.089,-3.665 6.091,-7.544 8.23,-11.674 0.397,-0.766 0.154,-1.584 -0.346,-2.144 0.192,-0.648 -0.052,-1.346 -0.642,-1.723 -0.116,-0.074 -0.231,-0.148 -0.348,-0.222 -0.35,-0.224 -0.699,-0.268 -1.01,-0.194 0.511,-2.436 0.371,-4.871 -0.422,-7.305 -0.619,-3.841 -1.047,-7.701 -1.282,-11.581 -0.263,-4.033 -0.336,-8.08 -0.21,-12.12 0.254,-8.112 1.326,-15.833 -0.544,-23.74 0.113,-0.091 0.235,-0.175 0.348,-0.266 1.619,-1.306 -0.537,-4.137 -2.242,-2.906 -7.675,5.54 -15.152,11.648 -22.328,17.821 -0.4,0.344 -0.444,0.818 -0.285,1.231 -22.066,-0.524 -44.103,-0.801 -66.151,-1.936 2.031,-1.854 3.821,-4.132 5.539,-6.395 5.629,0.138 11.262,0.17 16.891,0.029 0.957,-0.024 0.958,-1.463 0,-1.487 -5.263,-0.132 -10.528,-0.103 -15.792,0.011 0.797,-1.054 1.585,-2.087 2.374,-3.044 1.133,-1.374 2.388,-2.752 3.632,-4.159 6.159,0.231 12.253,0.706 18.38,1.389 0.806,0.09 0.995,-1.278 0.193,-1.424 -5.739,-1.047 -11.587,-1.457 -17.422,-1.294 2.041,-2.387 3.937,-4.889 5.059,-7.662 0.002,-0.006 -0.002,-0.011 0,-0.017 9.161,3.696 24.139,2.725 33.377,3.733 11.351,1.238 22.718,3.06 34.107,3.794 1.755,0.113 2.154,-2.724 0.418,-3.086 C 144.797,5.324 132.235,4.222 119.845,2.946 109.989,1.93 95.404,-1.958 85.905,1.243 c -0.696,0.235 -1.132,0.917 -0.94,1.655 0.048,0.185 0.096,0.369 0.145,0.554 -3.76,3.343 -6.683,8.195 -9.717,12.038 -3.19,4.041 -7.696,8.348 -9.362,13.271 -0.09,0.266 10e-4,0.497 0.148,0.692 0,0.014 -0.009,0.027 -0.009,0.041 -0.106,19.986 -0.385,39.987 -0.036,59.974 -2.668,-0.052 -5.337,0.506 -7.986,0.93 -3.968,0.636 -7.936,1.337 -11.865,2.184 -0.405,0.087 -0.618,0.361 -0.742,0.68 -0.119,0.06 -0.241,0.092 -0.354,0.181 -12.65,9.895 -25.584,19.129 -38.813,28.218 -0.283,0.194 -0.435,0.441 -0.526,0.699 -1.009,-0.981 -3.147,-0.557 -3.212,1.282 -1.14,32.475 0.431,65.242 5.007,97.412 0.014,0.096 0.097,0.126 0.133,0.203 -0.582,0.868 -0.209,2.294 1.174,2.355 59.133,2.628 120.358,1.756 179.48,-1.175 0.316,-0.015 0.568,-0.112 0.792,-0.24 4.115,-0.353 11.292,-7.965 13.351,-9.74 7.257,-6.254 15.054,-13.421 20.092,-21.64 0.539,-0.884 0.066,-1.784 -0.671,-2.187 z M 203.926,89.207 c 3.708,0.399 7.681,0.729 11.497,0.542 -8.847,8.919 -16.752,19.629 -24.364,29.355 -2.586,-0.39 -5.062,-0.276 -7.588,0.493 -0.32,0.097 -0.552,0.257 -0.746,0.438 -26.185,0.086 -52.387,0.031 -78.588,0.09 2.077,-2.631 4.165,-5.251 6.395,-7.758 l 0.003,-0.003 c 7.71,1.157 16.034,0.79 23.786,0.708 0.975,-0.01 0.963,-1.453 0,-1.506 -7.355,-0.402 -15.208,-1.065 -22.616,-0.424 2.251,-2.392 4.642,-4.663 6.81,-7.117 6.787,-0.148 13.558,-0.389 20.276,-0.85 0.256,0.86 1.579,0.549 1.641,-0.322 0.021,-0.291 0.031,-0.586 0.051,-0.878 0.29,-0.053 0.527,-0.181 0.778,-0.444 2.966,0.363 5.938,0.683 8.906,0.968 0.732,0.07 0.912,-1.188 0.175,-1.296 -2.649,-0.389 -5.309,-0.747 -7.971,-1.078 1.644,-1.248 3.508,-3.192 3.803,-3.482 0.927,-0.913 1.769,-1.907 2.67,-2.846 0.009,0 0.011,0.009 0.02,0.009 5.511,0.063 11.017,0.164 16.527,-0.019 0.897,-0.029 0.898,-1.365 0,-1.394 -5.067,-0.168 -10.131,-0.094 -15.2,-0.032 1.213,-1.299 2.479,-2.547 3.648,-3.889 0.498,-0.572 1.008,-1.168 1.514,-1.751 16.136,1.27 32.384,2.137 48.573,2.486 z M 158.791,15.146 c 1.263,12.003 -1.397,24.174 -0.475,36.266 0.423,5.555 0.124,15.303 3.887,19.705 -5.034,5.955 -9.293,12.561 -14.462,18.448 -1.695,1.93 -4.934,4.437 -6.932,6.868 1.111,-21.166 0.391,-42.89 0.083,-63.992 -0.019,-1.317 -1.054,-1.899 -2.043,-1.808 -0.126,-0.245 -0.33,-0.436 -0.532,-0.624 6.951,-4.691 13.858,-9.665 20.474,-14.863 z M 35.714,105.742 c 4.879,0.438 9.76,0.897 14.659,0.991 0.733,0.014 0.697,-1.039 0,-1.116 -4.442,-0.485 -8.908,-0.665 -13.373,-0.838 2.457,-1.877 4.819,-3.848 7.201,-5.801 4.8,-0.05 9.505,-0.47 14.232,-1.448 0.715,-0.148 0.397,-1.18 -0.296,-1.076 -4.064,0.612 -8.161,0.983 -12.267,1.179 0.637,-0.533 1.316,-1.025 1.944,-1.566 0.432,-0.372 0.6,-0.792 0.609,-1.199 3.41,-0.205 6.819,-0.487 10.216,-0.837 2.549,-0.262 5.119,-0.393 7.569,-1.042 0.063,2.949 0.094,5.898 0.191,8.846 0.059,1.774 2.669,1.768 2.752,0 0.147,-3.151 0.225,-6.302 0.329,-9.453 2.883,0.024 5.765,0.058 8.649,0.008 0.801,-0.014 0.803,-1.232 0,-1.246 -2.869,-0.05 -5.737,-0.016 -8.606,0.008 0.071,-2.258 0.09,-4.518 0.149,-6.776 4.138,0.103 8.286,0.255 12.424,0.09 0.813,-0.033 0.814,-1.232 0,-1.264 -4.13,-0.165 -8.269,-0.014 -12.4,0.089 0.073,-2.898 0.126,-5.797 0.191,-8.695 5.169,0.143 10.347,0.118 15.514,-0.008 0.861,-0.021 0.863,-1.318 0,-1.339 -5.157,-0.126 -10.325,-0.151 -15.484,-0.009 0.033,-1.598 0.086,-3.196 0.105,-4.795 0.029,-2.448 0.046,-4.896 0.069,-7.345 5.54,-0.344 11.072,-0.487 16.63,-0.346 0.881,0.022 0.862,-1.293 0,-1.357 -5.549,-0.41 -11.091,-0.298 -16.616,0.264 0.024,-2.637 0.052,-5.274 0.074,-7.911 0.015,-1.825 -0.539,-7.832 -0.476,-12.21 5.236,0.056 10.462,0.073 15.699,-0.035 0.801,-0.017 0.803,-1.229 0,-1.246 -5.228,-0.109 -10.446,-0.09 -15.674,-0.035 0.075,-1.455 0.251,-2.609 0.588,-3.169 3.925,-6.513 25.46,-2.072 32.326,-1.855 10.654,0.337 21.321,0.537 31.98,0.399 0.453,0.582 1.25,0.864 2.163,0.393 0.071,-0.037 0.142,-0.073 0.213,-0.11 -1.316,21.497 -1.633,44.372 1.293,65.799 -1.766,-0.191 -3.531,-0.401 -5.298,-0.549 -0.44,-0.037 -0.634,0.415 -0.563,0.783 -20.588,-0.782 -41.501,-0.11 -62.007,0.954 -1.633,0.085 -1.646,2.486 0,2.547 14.096,0.528 28.386,0.841 42.628,0.676 -4.736,4.712 -8.89,10.611 -12.329,16.036 -29.455,0.08 -58.908,0.328 -88.335,1.152 8.068,-4.657 15.858,-9.909 23.327,-15.538 z M 9.695,220.558 C 9.503,217.19 9.346,213.83 9.167,210.465 c 5.792,-0.396 11.592,-0.468 17.395,-0.275 0.891,0.03 0.876,-1.317 0,-1.376 -5.845,-0.39 -11.642,-0.214 -17.464,0.333 -0.17,-3.228 -0.309,-6.452 -0.466,-9.679 4.279,0.111 8.549,-0.067 12.786,-0.754 0.583,-0.095 0.454,-1.103 -0.141,-1.041 -4.238,0.445 -8.455,0.677 -12.7,0.65 -0.368,-7.637 -0.685,-15.27 -0.975,-22.904 4.553,-0.406 9.095,-0.475 13.672,-0.304 0.858,0.032 0.835,-1.248 0,-1.32 -4.583,-0.395 -9.157,-0.224 -13.719,0.266 -0.168,-4.522 -0.282,-9.047 -0.42,-13.571 5.026,0.218 9.982,0.058 14.975,-0.673 0.708,-0.104 0.549,-1.334 -0.17,-1.26 -4.934,0.509 -9.884,0.778 -14.843,0.695 -0.114,-3.812 -0.203,-7.627 -0.297,-11.441 6.59,0.133 13.176,0.272 19.768,0.176 0.885,-0.013 0.886,-1.363 0,-1.376 -6.6,-0.097 -13.196,0.043 -19.794,0.176 -0.108,-4.438 -0.157,-8.883 -0.23,-13.326 9.328,-0.001 18.642,0.206 27.965,0.638 1.036,0.048 1.015,-1.518 0,-1.599 -9.318,-0.745 -18.654,-0.859 -27.989,-0.453 -0.041,-2.701 -0.12,-5.397 -0.14,-8.102 0.234,0.158 0.511,0.25 0.825,0.211 0.21,0.127 0.45,0.223 0.757,0.229 30.931,0.662 61.887,0.652 92.843,0.459 -0.101,0.226 -0.16,0.489 -0.153,0.795 0.053,2.612 0.089,5.239 0.128,7.864 -0.317,0.29 -0.308,0.821 0.018,1.125 0.391,27.591 0.22,55.773 3.477,83.067 -31.708,0.136 -63.438,1.009 -94.58,2.863 z m 179.023,-1.517 c -0.099,-0.019 -0.179,-0.062 -0.29,-0.066 -27.029,-0.919 -54.492,-1.372 -81.984,-1.284 0.178,-3.12 0.283,-6.254 0.376,-9.39 0.065,0.087 0.143,0.168 0.271,0.199 7.243,1.748 15.226,1.766 22.614,1.231 0.92,-0.067 0.944,-1.465 0,-1.45 -7.549,0.115 -14.949,-0.601 -22.466,-0.877 -0.173,-0.006 -0.298,0.07 -0.391,0.176 0.256,-9.264 0.16,-18.589 -0.103,-27.925 4.418,0.575 8.885,0.54 13.227,-0.561 0.812,-0.206 0.459,-1.379 -0.341,-1.237 -4.337,0.771 -8.556,1.07 -12.915,0.603 -0.126,-4.24 -0.291,-8.482 -0.475,-12.721 4.513,0.056 9.022,0.102 13.536,-0.005 0.753,-0.018 0.755,-1.153 0,-1.171 -4.531,-0.108 -9.057,-0.061 -13.586,-0.005 -0.195,-4.413 -0.423,-8.814 -0.645,-13.217 6.7,0.833 13.442,1.252 20.188,0.792 0.91,-0.062 0.931,-1.446 0,-1.432 -6.791,0.101 -13.511,-0.032 -20.257,-0.755 -0.252,-4.976 -0.477,-9.912 -0.713,-14.862 6.055,0.351 12.092,0.921 18.103,1.757 1.01,0.14 1.466,-1.392 0.43,-1.56 -6.176,-1.001 -12.373,-1.518 -18.609,-1.787 -0.123,-2.615 -0.268,-5.254 -0.377,-7.856 -0.013,-0.32 -0.101,-0.587 -0.227,-0.82 26.614,-0.177 53.228,-0.471 79.825,-0.607 0.811,-0.004 1.347,-0.41 1.669,-0.949 1.888,0.255 3.803,0.512 5.694,0.565 0.407,31.812 -1.093,63.451 -2.554,95.214 z m 30.197,-31.263 c -0.162,0.846 -0.324,1.691 -0.487,2.537 -0.027,0.141 0.006,0.251 0.004,0.379 -4.461,4.773 -8.484,9.961 -13.161,14.569 -2.492,2.454 -5.045,4.847 -7.686,7.141 -1.543,1.34 -3.939,3.991 -6.267,5.778 3.661,-32.011 4.217,-64.324 3.67,-96.513 -0.018,-1.053 -0.752,-1.622 -1.56,-1.744 8.729,-8.933 18.263,-18.342 25.848,-28.426 -0.762,16.119 -0.855,32.239 -0.899,48.376 -0.021,7.834 -0.029,15.668 -0.029,23.503 -0.001,3.917 10e-4,7.834 0.002,11.751 -1.297,4.578 -0.475,8.54 2.408,11.903 -0.688,-0.327 -1.678,-0.112 -1.843,0.746 z" /><path
     d="m 23.277,185.38 c -4.636,0.37 -9.261,0.833 -13.889,1.296 -0.505,0.05 -0.517,0.841 0,0.799 4.634,-0.37 9.264,-0.74 13.889,-1.203 0.563,-0.056 0.577,-0.938 0,-0.892 z"
     id="path12"
     inkscape:connector-curvature="0" /><path
     d="m 39.671,113.163 c -4.575,0.616 -9.154,0.834 -13.766,0.673 -0.53,-0.018 -0.522,0.784 0,0.818 4.701,0.309 9.347,0.087 13.999,-0.649 0.558,-0.088 0.313,-0.915 -0.233,-0.842 z"
     id="path14"
     inkscape:connector-curvature="0" /><path
     d="m 86.062,48.84 c -5.065,-0.313 -10.13,-0.535 -15.204,-0.647 -0.796,-0.018 -0.782,1.176 0,1.227 5.065,0.331 10.131,0.553 15.204,0.684 0.819,0.022 0.807,-1.214 0,-1.264 z"
     id="path16"
     inkscape:connector-curvature="0" /><path
     d="m 123.744,194.923 c -5.298,-0.097 -10.584,-0.257 -15.861,-0.764 -0.885,-0.085 -0.869,1.281 0,1.376 5.277,0.579 10.552,0.903 15.861,0.689 0.835,-0.033 0.842,-1.285 0,-1.301 z"
     id="path18"
     inkscape:connector-curvature="0" /><g
     id="g22">
</g><g
     id="g24">
</g><g
     id="g26">
</g><g
     id="g28">
</g><g
     id="g30">
</g><g
     id="g32">
</g><g
     id="g34">
</g><g
     id="g36">
</g><g
     id="g38">
</g><g
     id="g40">
</g><g
     id="g42">
</g><g
     id="g44">
</g><g
     id="g46">
</g><g
     id="g48">
</g><g
     id="g50">
</g></g>
</svg>