<?xml version="1.0" encoding="UTF-8" standalone="no"?>
<!-- Generator: Adobe Illustrator 18.0.0, SVG Export Plug-In . SVG Version: 6.00 Build 0)  -->

<svg
   xmlns:dc="http://purl.org/dc/elements/1.1/"
   xmlns:cc="http://creativecommons.org/ns#"
   xmlns:rdf="http://www.w3.org/1999/02/22-rdf-syntax-ns#"
   xmlns:svg="http://www.w3.org/2000/svg"
   xmlns="http://www.w3.org/2000/svg"
   xmlns:sodipodi="http://sodipodi.sourceforge.net/DTD/sodipodi-0.dtd"
   xmlns:inkscape="http://www.inkscape.org/namespaces/inkscape"
   version="1.1"
   id="Capa_1"
   x="0px"
   y="0px"
   viewBox="0 0 237.169 237.169"
   style="enable-background:new 0 0 237.169 237.169;"
   xml:space="preserve"
   sodipodi:docname="blackboard (Kopie).svg"
   inkscape:version="0.92.5 (2060ec1f9f, 2020-04-08)"><metadata
   id="metadata59"><rdf:RDF><cc:Work
       rdf:about=""><dc:format>image/svg+xml</dc:format><dc:type
         rdf:resource="http://purl.org/dc/dcmitype/StillImage" /></cc:Work></rdf:RDF></metadata><defs
   id="defs57">
	
	
	
	
	
	
	
	
	
	
</defs><sodipodi:namedview
   pagecolor="#ffffff"
   bordercolor="#666666"
   borderopacity="1"
   objecttolerance="10"
   gridtolerance="10"
   guidetolerance="10"
   inkscape:pageopacity="0"
   inkscape:pageshadow="2"
   inkscape:window-width="741"
   inkscape:window-height="480"
   id="namedview55"
   showgrid="false"
   inkscape:zoom="0.995071"
   inkscape:cx="118.5845"
   inkscape:cy="118.5845"
   inkscape:window-x="0"
   inkscape:window-y="0"
   inkscape:window-maximized="0"
   inkscape:current-layer="Capa_1" />















<g
   id="g89"><path
     d="m 234.512,22.656 c -0.014,-0.587 -0.336,-1.176 -0.954,-1.337 -2.284,-0.596 -4.656,-0.221 -6.772,0.742 -32.335,-1.182 -64.692,-2.678 -97.055,-4.061 1.182,-3.78 0.303,-9.139 -0.814,-12.752 -0.946,-3.06 -3.207,-5.44 -6.591,-5.235 -8.929,0.54 -8.498,11.296 -6.429,17.401 C 79.825,15.92 43.748,14.651 7.687,14.22 c -1.772,-0.021 -1.742,2.623 0,2.733 73.227,4.636 146.784,5.829 220.101,8.681 0.686,0.027 1.138,-0.293 1.41,-0.732 0.575,0.02 1.142,-0.001 1.698,-0.086 0.196,-0.003 0.391,-0.017 0.586,-0.026 -0.706,51.274 -2.177,102.639 -1.486,153.915 -0.238,-0.126 -0.511,-0.214 -0.851,-0.204 -14.159,0.419 -28.283,0.131 -42.396,-0.425 -0.198,-0.344 -0.383,-0.696 -0.581,-1.04 -0.365,-0.633 -1.259,-0.078 -0.963,0.563 0.065,0.14 0.135,0.277 0.2,0.418 -22.465,-0.913 -44.905,-2.474 -67.416,-2.963 -37.508,-0.815 -74.221,1.629 -111.654,-2.448 0.062,-1.554 0.097,-3.115 0.154,-4.67 4.323,-0.186 8.64,-0.489 12.946,-0.91 0.321,-0.031 0.482,-0.258 0.552,-0.504 66.75,4.799 135.095,5.689 201.857,1.427 1.136,-0.073 1.159,-1.807 0,-1.785 -0.507,0.01 -1.013,0.016 -1.521,0.026 0.136,-0.088 0.244,-0.211 0.239,-0.398 -1.031,-44.365 -2.305,-87.919 2.909,-132.134 0.184,-1.566 -2.271,-1.552 -2.454,0 -5.149,43.586 -7.834,88.665 -1.496,132.275 0.019,0.128 0.091,0.206 0.173,0.268 -6.967,0.133 -13.923,0.242 -20.878,0.346 0.586,-3.689 2.226,-9.433 -2.232,-10.043 -0.475,-0.065 -0.973,-0.086 -1.483,-0.085 -0.053,-1.001 -0.129,-1.569 -0.333,-2.831 -0.089,-0.553 -0.723,-0.944 -1.245,-0.947 -4.68,-0.033 -9.36,-0.08 -14.041,-0.09 -3.578,-0.008 -7.827,-0.691 -11.243,0.338 -0.304,0.092 -0.595,0.34 -0.664,0.664 -0.309,1.462 -0.045,2.779 0.443,4.067 -0.976,-0.124 -1.952,-0.242 -2.93,-0.393 -0.899,-0.139 -1.535,0.346 -1.638,1.248 -0.355,3.101 -0.158,5.593 0.652,8.453 -49.029,0.342 -97.91,-0.183 -147.116,-2.071 -0.651,-0.025 -0.814,0.626 -0.575,1.07 -3.299,0.191 -6.593,0.44 -9.881,0.772 0.068,-1.911 0.107,-3.829 0.168,-5.742 2.555,0.035 5.07,-0.217 7.568,-0.925 0.653,-0.186 0.36,-1.072 -0.272,-0.986 -2.416,0.329 -4.831,0.494 -7.255,0.508 0.095,-3.096 0.106,-6.209 0.183,-9.308 0.937,-0.107 1.864,-0.296 2.757,-0.668 0.61,-0.254 0.396,-1.132 -0.277,-1.004 -0.833,0.158 -1.642,0.263 -2.454,0.361 0.079,-3.333 0.086,-6.679 0.147,-10.015 1.244,0.06 2.489,0.117 3.731,0.096 0.813,-0.013 0.815,-1.251 0,-1.264 -1.236,-0.021 -2.476,0.035 -3.715,0.095 0.046,-2.638 0.043,-5.283 0.079,-7.923 1.279,-0.208 2.561,-0.4 3.831,-0.663 0.656,-0.136 0.521,-1.271 -0.16,-1.187 -1.226,0.152 -2.441,0.373 -3.658,0.574 0.052,-4.077 0.05,-8.16 0.08,-12.239 1.472,-0.08 2.946,-0.194 4.386,-0.396 0.695,-0.098 0.53,-1.257 -0.166,-1.224 -1.395,0.069 -2.807,0.228 -4.212,0.419 0.015,-2.265 0.004,-4.531 0.013,-6.796 1.151,-0.276 2.285,-0.353 3.516,-0.407 0.763,-0.034 0.871,-1.043 0.176,-1.296 -1.231,-0.447 -2.482,-0.336 -3.689,0.02 0.013,-3.93 -0.049,-7.857 -0.053,-11.788 1.199,0.022 2.396,0.011 3.572,-0.114 0.943,-0.1 0.945,-1.369 0,-1.469 -1.178,-0.125 -2.378,-0.136 -3.58,-0.114 -0.004,-2.927 -0.048,-5.849 -0.06,-8.776 1.405,0.046 2.784,-0.161 4.101,-0.8 0.865,-0.42 0.253,-1.777 -0.645,-1.529 -1.18,0.325 -2.304,0.501 -3.468,0.53 -0.006,-1.51 -0.03,-3.017 -0.038,-4.528 1.418,-0.506 2.845,-0.583 4.346,-0.588 0.715,-0.002 0.828,-1.011 0.165,-1.224 C 10.049,75.817 8.604,76.053 7.124,76.653 7.082,69.238 7,61.832 6.92,54.425 c 1.305,0.027 2.611,0.038 3.906,-0.046 0.789,-0.051 0.79,-1.176 0,-1.227 C 9.526,53.068 8.217,53.079 6.907,53.107 6.88,50.711 6.821,48.328 6.791,45.933 c 1.65,0.005 3.281,-0.189 4.902,-0.676 0.771,-0.232 0.451,-1.369 -0.331,-1.201 C 9.823,44.383 8.3,44.51 6.768,44.527 6.728,41.46 6.661,38.405 6.619,35.339 8.671,35.221 10.72,35.209 12.803,35.283 13.5,35.307 13.685,34.158 12.971,34.041 10.847,33.695 8.716,33.734 6.597,33.971 6.548,30.6 6.485,27.237 6.432,23.869 c 0.111,0.097 0.237,0.185 0.427,0.191 7.93,0.257 15.868,0.202 23.799,0.037 0.957,-0.02 0.958,-1.468 0,-1.487 C 22.728,22.445 14.788,22.39 6.859,22.647 6.662,22.653 6.527,22.742 6.415,22.846 6.377,20.457 6.354,18.06 6.299,15.678 6.274,14.601 4.654,14.6 4.626,15.678 4.465,21.873 4.343,28.1 4.211,34.319 3.926,34.371 3.64,34.409 3.356,34.466 2.62,34.615 2.943,35.692 3.662,35.578 3.837,35.55 4.009,35.56 4.183,35.536 4.12,38.537 4.044,41.527 3.983,44.529 3.522,44.685 3.519,45.335 3.959,45.625 3.907,48.202 3.835,50.766 3.787,53.346 3.59,53.566 3.585,53.928 3.769,54.158 3.534,67.241 3.36,80.349 3.275,93.458 2.739,93.71 2.737,94.462 3.27,94.718 c -0.109,18.116 -0.076,36.233 0.302,54.287 -0.226,-0.018 -0.442,0.019 -0.671,-0.011 -0.638,-0.083 -0.795,1.033 -0.153,1.132 0.28,0.044 0.563,0.062 0.844,0.094 0.069,3.165 0.071,6.343 0.159,9.504 -0.21,0.231 -0.195,0.638 0.028,0.891 0.124,4.356 0.238,8.714 0.402,13.06 0.037,0.976 1.063,1.223 1.673,0.803 0.074,0.044 0.103,0.128 0.195,0.152 14.787,3.882 30.039,5.041 45.417,5.149 -6.932,14.804 -13.112,32.096 -16.641,47.73 -0.108,0.478 0.179,0.882 0.551,1.1 -0.185,1.851 0.21,3.726 1.462,5.343 1.618,2.09 5.809,4.371 8.306,2.559 0.165,-0.12 0.277,-0.271 0.345,-0.433 0.597,0.304 1.49,0.167 1.704,-0.606 5.377,-19.365 11.115,-37.311 18.813,-55.883 16.2,-0.417 32.42,-1.402 48.276,-1.124 20.193,0.354 40.338,1.678 60.492,2.671 7.549,17.361 15.153,35.071 23.484,52.02 0.332,0.676 1.108,0.689 1.648,0.353 0.82,2.414 3.559,3.938 6.393,3.177 3.523,-0.947 5.823,-4.433 6.343,-8.014 0.099,-0.074 0.198,-0.147 0.298,-0.221 0.851,-0.63 0.576,-1.673 -0.228,-1.97 -0.022,-0.318 -0.023,-0.641 -0.077,-0.95 -0.124,-0.709 -0.782,-0.958 -1.401,-0.869 -2.415,-4.908 -9.396,-18.919 -10.695,-21.37 -3.828,-7.227 -7.721,-14.417 -11.733,-21.541 13.432,0.512 26.873,0.743 40.34,0.282 0.706,-0.024 1.166,-0.397 1.434,-0.876 0.621,0.304 1.525,0.053 1.563,-0.861 2.143,-52.163 1.999,-104.483 2.687,-156.683 0.007,-0.404 -0.131,-0.705 -0.318,-0.957 z M 117.221,17.465 c 0.011,-0.062 0.058,-0.097 0.048,-0.171 -0.626,-4.738 -2.311,-13.579 4.653,-14.665 6.837,-1.066 4.948,10.824 5.601,15.277 -3.433,-0.147 -6.868,-0.298 -10.302,-0.441 z m 58.252,137.314 c 2.34,0.069 4.68,0.137 7.02,0.193 2.936,0.069 8.318,-0.945 10.023,1.662 -3.249,0.463 -6.772,1.526 -9.635,1.662 -4.437,0.211 -8.811,0.022 -13.188,-0.462 -0.947,-4.114 3.574,-3.12 5.78,-3.055 z m -7.488,5.574 c 1.039,-0.2 2.946,0.408 3.976,0.512 4.031,0.408 8.089,0.498 12.134,0.258 2.938,-0.175 5.935,-0.46 8.828,-1.025 1.209,-0.161 2.389,-0.448 3.541,-0.86 -0.059,0.705 -0.117,1.409 -0.176,2.114 0.377,1.379 -0.099,3.55 -0.372,5.24 -9.997,0.143 -19.984,0.248 -29.964,0.322 -0.591,-2.961 -0.952,-5.987 2.033,-6.561 z m -122.996,74.55 c -0.024,-0.01 -0.035,-0.032 -0.061,-0.041 -2.132,-0.739 -4.089,-0.285 -5.897,-2.054 -1.212,-1.186 -1.786,-2.861 -1.799,-4.549 1.775,0.055 3.55,0.111 5.325,0.166 1.029,0.032 1.031,-1.631 0,-1.599 -1.732,0.054 -3.463,0.108 -5.195,0.162 0.036,-0.216 0.034,-0.438 0.09,-0.65 0.604,-1.406 1.155,-2.836 1.702,-4.268 1.635,0.056 3.244,-0.128 4.827,-0.696 0.39,-0.14 0.239,-0.731 -0.173,-0.627 -1.46,0.368 -2.907,0.549 -4.37,0.61 0.747,-1.989 1.423,-4.008 2.107,-6.022 1.852,-0.555 3.706,-0.728 5.636,-0.516 0.502,0.055 0.49,-0.718 0,-0.781 -1.853,-0.237 -3.588,-0.034 -5.346,0.466 0.833,-2.472 1.657,-4.942 2.486,-7.409 1.928,0.087 3.876,-0.031 5.691,-0.582 0.535,-0.162 0.468,-1.091 -0.139,-1.023 -1.754,0.197 -3.459,0.369 -5.172,0.469 0.164,-0.485 0.324,-0.974 0.489,-1.458 0.466,-1.364 0.937,-2.726 1.404,-4.09 2.027,-0.054 4.094,-0.142 6.062,-0.492 0.741,-0.132 0.556,-1.307 -0.175,-1.296 -1.805,0.025 -3.651,0.287 -5.471,0.58 0.688,-2.004 1.375,-4.009 2.065,-6.013 2.961,-0.316 5.976,-0.551 8.856,-1.25 -6.43,13.599 -11.099,28.576 -12.942,42.963 z M 58.331,191.14 c -0.074,-0.243 -0.25,-0.452 -0.56,-0.44 -2.749,0.11 -5.497,0.636 -8.223,1.119 l 0.01,-0.03 c 0.356,-1.032 1.84,-4.181 2.986,-7.044 1.52,0.031 3.034,0.049 4.557,-0.062 0.884,-0.064 0.886,-1.311 0,-1.376 -1.331,-0.097 -2.656,-0.093 -3.982,-0.072 0.556,-1.535 0.928,-2.853 0.792,-3.442 3.511,0 7.031,-0.097 10.55,-0.178 -2.185,3.678 -4.221,7.55 -6.13,11.525 z m 141.738,16.759 c 2.134,4.205 5.678,15.477 9.72,19.582 -0.312,2.062 -0.576,4.069 -2.272,5.661 -2.327,2.185 -7.42,1.452 -6.904,-2.559 0.055,-0.43 -0.61,-0.481 -0.73,-0.099 -0.019,0.06 -0.013,0.115 -0.029,0.175 -5.865,-17.016 -14.369,-34.057 -23.73,-49.461 3.679,0.178 7.358,0.334 11.038,0.48 4.153,8.813 8.498,17.532 12.907,26.221 z"
     id="path2"
     inkscape:connector-curvature="0" /><path
     d="m 217.789,31.942 c -17.598,4.972 -32.165,0.579 -49.516,0.672 -14.86,0.079 -28.351,0.66 -43.442,-0.462 C 89.154,29.5 53.316,27.735 17.535,28.144 c -0.59,0.007 -0.802,0.511 -0.716,0.955 -0.613,-0.019 -1.264,0.359 -1.31,1.147 -2.559,44.072 -5.748,90.296 -0.255,134.226 0.084,0.672 1.051,0.713 1.078,0 1.718,-44.706 -0.928,-89.436 1.575,-134.226 0.011,-0.189 -0.018,-0.354 -0.073,-0.496 38.284,0.841 76.471,1.866 114.644,5.09 15.572,1.315 31.148,0.073 46.548,1.454 14.169,1.271 25.511,2.207 39.439,-1.897 1.57,-0.461 0.908,-2.902 -0.676,-2.455 z"
     id="path4"
     inkscape:connector-curvature="0" /><path
     d="m 10.198,62.244 c -0.86,-0.305 -1.744,-0.5 -2.629,-0.718 -0.302,-0.074 -0.43,0.389 -0.128,0.466 0.884,0.226 1.756,0.472 2.658,0.61 0.233,0.036 0.328,-0.277 0.099,-0.358 z"
     id="path20"
     inkscape:connector-curvature="0" /><g
     id="g24">
</g><g
     id="g26">
</g><g
     id="g28">
</g><g
     id="g30">
</g><g
     id="g32">
</g><g
     id="g34">
</g><g
     id="g36">
</g><g
     id="g38">
</g><g
     id="g40">
</g><g
     id="g42">
</g><g
     id="g44">
</g><g
     id="g46">
</g><g
     id="g48">
</g><g
     id="g50">
</g><g
     id="g52">
</g></g>
</svg>